<svg xmlns="http://www.w3.org/2000/svg" width="1400" height="900" viewBox="0 0 1400 900">
  <defs>
    <linearGradient id="bg" x1="0" y1="0" x2="1" y2="1">
      <stop offset="0" stop-color="#fcf6f7"/>
      <stop offset="0.45" stop-color="#ffffff"/>
      <stop offset="1" stop-color="#f6f3ea"/>
    </linearGradient>
    <radialGradient id="glow1" cx="30%" cy="30%" r="60%">
      <stop offset="0" stop-color="#eab1bf" stop-opacity="0.65"/>
      <stop offset="1" stop-color="#eab1bf" stop-opacity="0"/>
    </radialGradient>
    <radialGradient id="glow2" cx="75%" cy="55%" r="70%">
      <stop offset="0" stop-color="#e1d2b3" stop-opacity="0.65"/>
      <stop offset="1" stop-color="#e1d2b3" stop-opacity="0"/>
    </radialGradient>
    <filter id="soft" x="-20%" y="-20%" width="140%" height="140%">
      <feGaussianBlur stdDeviation="14"/>
    </filter>
  </defs>

  <rect width="1400" height="900" fill="url(#bg)"/>
  <circle cx="380" cy="260" r="420" fill="url(#glow1)" filter="url(#soft)"/>
  <circle cx="1050" cy="520" r="520" fill="url(#glow2)" filter="url(#soft)"/>

  <g opacity="0.55">
    <path d="M130 760c120-60 220-92 340-92 150 0 250 58 370 58 140 0 250-72 420-140" fill="none" stroke="#cf5d7c" stroke-width="2" stroke-linecap="round"/>
    <path d="M160 795c130-55 230-85 345-85 155 0 245 52 360 52 150 0 270-72 415-150" fill="none" stroke="#b28a4b" stroke-width="2" stroke-linecap="round"/>
  </g>

  <g transform="translate(780 140)" opacity="0.9">
    <circle cx="220" cy="290" r="210" fill="#ffffff" stroke="#7f344a" stroke-opacity="0.12" stroke-width="2"/>
    <circle cx="220" cy="290" r="150" fill="none" stroke="#cf5d7c" stroke-opacity="0.25" stroke-width="18"/>
    <circle cx="220" cy="290" r="150" fill="none" stroke="#cf5d7c" stroke-opacity="0.18" stroke-width="2"/>
    <circle cx="220" cy="290" r="110" fill="none" stroke="#b28a4b" stroke-opacity="0.35" stroke-width="12"/>
    <circle cx="220" cy="290" r="110" fill="none" stroke="#b28a4b" stroke-opacity="0.2" stroke-width="2"/>
    <g fill="#eab1bf" opacity="0.75">
      <circle cx="220" cy="120" r="6"/>
      <circle cx="325" cy="165" r="5"/>
      <circle cx="360" cy="280" r="6"/>
      <circle cx="325" cy="415" r="5"/>
      <circle cx="220" cy="460" r="6"/>
      <circle cx="115" cy="415" r="5"/>
      <circle cx="80" cy="290" r="6"/>
      <circle cx="115" cy="165" r="5"/>
    </g>
  </g>

  <g transform="translate(120 120)" opacity="0.9">
    <path d="M380 210c-60-64-150-96-240-86-92 10-172 58-210 134-44 88-16 198 64 270 60 54 138 78 226 66 86-12 166-62 200-140" fill="none" stroke="#7f344a" stroke-opacity="0.14" stroke-width="12" stroke-linecap="round"/>
    <path d="M110 520c30-72 88-120 160-132 84-14 170 26 212 104" fill="none" stroke="#b28a4b" stroke-opacity="0.22" stroke-width="8" stroke-linecap="round"/>
    <path d="M140 300c22-32 54-54 92-60 44-8 92 10 126 48" fill="none" stroke="#cf5d7c" stroke-opacity="0.22" stroke-width="6" stroke-linecap="round"/>
  </g>

  <g opacity="0.9">
    <path d="M575 285c40-55 98-82 175-82 90 0 158 40 204 118" fill="none" stroke="#cf5d7c" stroke-opacity="0.2" stroke-width="5" stroke-linecap="round"/>
    <path d="M590 340c48-48 104-70 172-70 78 0 138 34 182 100" fill="none" stroke="#b28a4b" stroke-opacity="0.2" stroke-width="5" stroke-linecap="round"/>
  </g>
</svg>

